<svg width="100" height="100" xmlns="http://www.w3.org/2000/svg">

 <g>
  <title>Layer 1</title>
  <path id="svg_20" d="m97.2647,84.56071l-25.34651,-25.34365c3.41463,-5.62995 5.41717,-12.21659 5.42072,-19.27981c-0.00356,-20.60283 -16.689,-37.28995 -37.28348,-37.29706c-20.59804,0.00711 -37.2906,16.69423 -37.2906,37.2935c0,20.5886 16.69256,37.27572 37.2906,37.27572c7.06757,0 13.65496,-2.00231 19.28554,-5.41656l25.35362,25.3472l12.5701,-12.57936zm-80.2758,-44.62701c0.02134,-12.7394 10.3257,-23.03903 23.06298,-23.06749c12.73016,0.02845 23.04163,10.32809 23.06298,23.06749c-0.0249,12.73228 -10.33281,23.03192 -23.06298,23.06037c-12.73728,-0.02845 -23.04163,-10.32809 -23.06298,-23.06037z" stroke-width="5" stroke="#000" fill="none"/>
 </g>
</svg>